<svg width="91" height="86" viewBox="0 0 91 86" fill="none" xmlns="http://www.w3.org/2000/svg">
<path d="M54.8817 68.6257C54.0873 68.6257 53.4148 68.553 52.8688 68.4077C52.3205 68.2624 51.8799 68.0141 51.5472 67.6649C51.2144 67.3134 50.9707 66.8518 50.8231 66.273C50.6731 65.6965 50.5981 64.9725 50.5981 64.1008V63.6907C50.5981 62.819 50.6731 62.0926 50.8231 61.5114C50.9731 60.9303 51.2144 60.4663 51.5472 60.1195C51.8799 59.7727 52.3205 59.5266 52.8688 59.3814C53.4148 59.2361 54.0873 59.1634 54.8817 59.1634C55.6761 59.1634 56.3556 59.2244 56.8946 59.3486C57.4335 59.4727 57.867 59.6719 58.1951 59.9461C58.5232 60.2203 58.7598 60.5882 58.9004 61.0545C59.041 61.5208 59.1066 62.0949 59.0996 62.7791L57.5741 62.8166C57.5741 62.3902 57.5366 62.0293 57.4663 61.7387C57.3937 61.4481 57.2601 61.2185 57.068 61.0521C56.8758 60.8857 56.6063 60.7662 56.2595 60.6936C55.9127 60.621 55.4652 60.5858 54.9192 60.5858C54.3732 60.5858 53.9373 60.6374 53.5858 60.7381C53.2344 60.8412 52.9578 61.0123 52.7516 61.2513C52.5454 61.4903 52.4025 61.8207 52.3228 62.2402C52.2408 62.6596 52.201 63.1892 52.201 63.8289V63.9578C52.201 64.6163 52.2408 65.1576 52.3228 65.5794C52.4025 66.0035 52.5478 66.3316 52.7516 66.5659C52.9578 66.8026 53.2344 66.9666 53.5858 67.0603C53.9373 67.1541 54.3802 67.2009 54.9192 67.2009C55.4581 67.2009 55.9127 67.1658 56.2595 67.0931C56.6063 67.0205 56.8758 66.901 57.068 66.7346C57.2601 66.5682 57.396 66.3363 57.471 66.0433C57.546 65.7504 57.5858 65.3919 57.5858 64.9725L59.1113 65.01C59.1113 65.5583 59.0668 66.0316 58.9754 66.4323C58.884 66.833 58.7411 67.1752 58.5396 67.4587C58.338 67.7399 58.0756 67.9672 57.7499 68.1382C57.4242 68.3093 57.0258 68.4335 56.5501 68.5108C56.0744 68.5882 55.5191 68.6257 54.877 68.6257H54.8817Z" fill="white"/>
<path d="M63.0108 68.6C62.4882 68.6 62.0453 68.5555 61.6821 68.4664C61.3189 68.3774 61.0283 68.2368 60.8104 68.0493C60.5925 67.8619 60.4355 67.6181 60.3418 67.3182C60.248 67.0183 60.2012 66.6597 60.2012 66.2403C60.2012 65.8208 60.2504 65.4459 60.3488 65.1436C60.4472 64.839 60.6066 64.5906 60.8292 64.3938C61.0518 64.1969 61.3423 64.054 61.7009 63.9649C62.0594 63.8759 62.4999 63.829 63.0225 63.829C63.5451 63.829 63.9411 63.8712 64.2926 63.9579C64.6441 64.0423 64.9346 64.1688 65.1713 64.3352C65.4056 64.5016 65.5861 64.7101 65.7103 64.9562C65.8345 65.2046 65.9094 65.4904 65.9352 65.8161L65.4736 65.8935C65.4736 65.7412 65.4455 65.6052 65.3892 65.4904C65.333 65.3756 65.2346 65.2772 65.094 65.1952C64.9534 65.1132 64.7659 65.0522 64.5292 65.0077C64.2926 64.9655 63.9926 64.9444 63.6247 64.9444C63.2568 64.9444 62.9241 64.9679 62.6757 65.0147C62.4273 65.0616 62.2398 65.1343 62.1109 65.2327C61.9821 65.3311 61.893 65.46 61.8415 65.617C61.7899 65.774 61.7641 65.9685 61.7641 66.2005C61.7641 66.5004 61.8204 66.7324 61.9305 66.8987C62.0407 67.0651 62.2351 67.1846 62.507 67.2573C62.7788 67.3299 63.1443 67.3651 63.5966 67.3651C63.9645 67.3651 64.2691 67.344 64.5128 67.3018C64.7565 67.2596 64.9487 67.1917 65.0893 67.0956C65.2299 66.9995 65.3283 66.8823 65.3845 66.7371C65.4408 66.5918 65.4689 66.416 65.4689 66.2122L65.9305 66.327C65.9048 66.6597 65.8274 66.969 65.6986 67.2502C65.5697 67.5314 65.3916 67.7728 65.1596 67.9743C64.9276 68.1759 64.6347 68.3282 64.2808 68.436C63.927 68.5437 63.5005 68.5953 63.0061 68.5953L63.0108 68.6ZM66.9592 66.0106V67.1401C66.9592 67.508 66.9639 67.9439 66.971 68.4477H65.5861L65.5603 67.1776L65.5861 66.7019L65.4712 66.2145V65.8935L65.6517 65.4201L65.4338 64.9585V63.7283C65.4338 63.4213 65.4056 63.1659 65.3494 62.9644C65.2931 62.7628 65.1971 62.6011 65.0612 62.477C64.9253 62.3528 64.7378 62.2661 64.5035 62.2145C64.2691 62.1629 63.9715 62.1372 63.613 62.1372C63.2545 62.1372 62.9803 62.1559 62.7671 62.1958C62.5538 62.2332 62.3898 62.2942 62.2726 62.3762C62.1578 62.4582 62.0805 62.5707 62.043 62.716C62.0055 62.8613 61.9844 63.037 61.9844 63.2432L60.5222 63.2057C60.5128 62.7956 60.562 62.4395 60.6698 62.1419C60.7776 61.8443 60.951 61.5982 61.1971 61.4037C61.4408 61.2116 61.7618 61.0686 62.1649 60.9749C62.5656 60.8812 63.0576 60.8343 63.6388 60.8343C64.2972 60.8343 64.8386 60.8859 65.2674 60.989C65.6939 61.0921 66.0313 61.2467 66.2797 61.4576C66.5281 61.6662 66.7038 61.931 66.8116 62.252C66.9194 62.573 66.971 62.9503 66.971 63.3862V64.0657C66.971 64.2625 66.971 64.4547 66.9639 64.6422C66.9569 64.8296 66.9569 65.0311 66.9569 65.2444V66.013L66.9592 66.0106Z" fill="white"/>
<path d="M68.7681 66.7534V61.7528C68.7681 61.5044 68.7634 61.249 68.7563 60.9842H70.1928L70.2186 62.3809L70.1412 62.9081L70.2959 64.6913V67.4025C70.2959 67.5853 70.2959 67.7587 70.3029 67.9227C70.3076 68.0868 70.31 68.2602 70.31 68.45H68.7587C68.7681 68.2625 68.7704 68.0797 68.7704 67.904V66.7558L68.7681 66.7534ZM69.7944 64.3422C69.8202 63.7446 69.8952 63.2244 70.0194 62.7839C70.1436 62.3434 70.3146 61.9778 70.5326 61.6872C70.7505 61.3967 71.02 61.1811 71.341 61.0381C71.662 60.8975 72.0346 60.8272 72.4634 60.8272C72.8571 60.8272 73.1828 60.8647 73.4453 60.9421C73.7077 61.0194 73.9163 61.1459 74.0733 61.3193C74.2326 61.4951 74.3451 61.7271 74.4131 62.0176C74.481 62.3082 74.5162 62.6714 74.5162 63.1073V63.6392C74.5162 63.8314 74.5115 64.0094 74.5021 64.1711L73.0539 64.1969V63.4541C73.0539 63.2151 73.0375 63.0159 73.0024 62.8589C72.9672 62.6995 72.9063 62.5753 72.8173 62.4816C72.7259 62.3879 72.6017 62.3223 72.44 62.2824C72.276 62.2449 72.0674 62.2238 71.812 62.2238C71.5566 62.2238 71.334 62.2543 71.1442 62.3199C70.9567 62.3832 70.7997 62.5027 70.6755 62.6714C70.5513 62.8425 70.4576 63.0909 70.3943 63.4142C70.331 63.74 70.2982 64.1617 70.2982 64.6843L69.7991 64.3375L69.7944 64.3422Z" fill="white"/>
<path d="M78.4622 67.6135C77.9396 67.6135 77.4803 67.5666 77.0843 67.4729C76.686 67.3791 76.3579 67.2104 76.0978 66.9667C75.8377 66.723 75.6409 66.3856 75.5073 65.9544C75.3737 65.5232 75.3081 64.9655 75.3081 64.2813V64.1665C75.3081 63.4916 75.3737 62.9362 75.5073 62.5004C75.6409 62.0645 75.8353 61.7271 76.0978 61.4881C76.3602 61.2491 76.686 61.0803 77.0796 60.9819C77.4733 60.8835 77.9349 60.8343 78.4645 60.8343C78.9941 60.8343 79.4018 60.9046 79.7651 61.0452C80.1283 61.1858 80.4259 61.392 80.6555 61.6615C80.8852 61.931 81.0586 62.2614 81.1757 62.655C81.2905 63.0487 81.3562 63.4916 81.3749 63.9884L80.8875 64.1688C80.8875 63.7681 80.85 63.4377 80.7727 63.1823C80.6953 62.9269 80.5782 62.7253 80.4212 62.5801C80.2618 62.4348 80.058 62.3317 79.8049 62.2707C79.5518 62.2122 79.2472 62.1817 78.8887 62.1817C78.5114 62.1817 78.1927 62.2168 77.9279 62.2848C77.6631 62.3528 77.4546 62.4629 77.2999 62.6129C77.1476 62.7628 77.0328 62.9644 76.9601 63.2221C76.8875 63.4775 76.8523 63.7939 76.8523 64.1711V64.286C76.8523 64.6632 76.8875 64.9796 76.9601 65.235C77.0328 65.4904 77.1476 65.6943 77.3069 65.8443C77.4663 65.9942 77.6748 66.102 77.9349 66.1723C78.1951 66.2426 78.5184 66.2754 78.9027 66.2754C79.287 66.2754 79.5776 66.2403 79.826 66.1723C80.0744 66.1044 80.2759 65.9896 80.4282 65.8326C80.5829 65.6732 80.6977 65.46 80.775 65.1905C80.8523 64.921 80.8898 64.5812 80.8898 64.1711L81.3772 64.3375C81.3585 64.8601 81.2929 65.3241 81.1781 65.7294C81.0633 66.1348 80.8898 66.4793 80.6579 66.7628C80.4259 67.044 80.1306 67.2596 79.7721 67.4049C79.4136 67.5502 78.9777 67.6228 78.4645 67.6228L78.4622 67.6135ZM78.7317 70.3949C78.2091 70.3949 77.7639 70.3739 77.3913 70.3317C77.0187 70.2895 76.7141 70.2169 76.4751 70.1138C76.2361 70.0107 76.0486 69.8701 75.9103 69.6896C75.7744 69.5092 75.6737 69.2889 75.6081 69.0218C75.5448 68.757 75.512 68.4406 75.512 68.0727L76.9742 68.0212C76.9742 68.218 76.9953 68.3844 77.0375 68.5203C77.0796 68.6562 77.164 68.7687 77.2882 68.8601C77.4124 68.9491 77.5905 69.0124 77.8271 69.0522C78.0615 69.0897 78.3638 69.1108 78.7317 69.1108C79.1675 69.1108 79.526 69.085 79.8025 69.0335C80.0791 68.9819 80.2993 68.8882 80.4634 68.7523C80.625 68.6164 80.7399 68.4313 80.8031 68.2016C80.8664 67.972 80.9039 67.6814 80.9133 67.3299L80.925 65.7271L80.9883 65.0358L80.8852 64.1641L81.0258 62.8191L80.9625 62.3832L80.9883 60.9866H82.4106C82.4013 61.2256 82.3989 61.4811 82.3989 61.7505V65.4248C82.3989 65.6732 82.3989 65.9099 82.406 66.1372C82.413 66.3645 82.413 66.5918 82.413 66.8238V67.5408C82.413 68.0704 82.3474 68.5203 82.2138 68.8882C82.0802 69.2561 81.8717 69.5514 81.5858 69.774C81.2999 69.9966 80.9203 70.1559 80.4516 70.2544C79.9806 70.3528 79.4089 70.402 78.734 70.402L78.7317 70.3949Z" fill="white"/>
<path d="M87.3483 68.5999C86.7063 68.5999 86.1579 68.5413 85.701 68.4194C85.2441 68.2999 84.8762 68.1007 84.5973 67.8242C84.3184 67.5454 84.1169 67.1681 83.9881 66.6901C83.8592 66.212 83.7959 65.6168 83.7959 64.9068V64.5225C83.7959 63.8055 83.8592 63.2079 83.9881 62.7346C84.1169 62.2589 84.3184 61.884 84.5973 61.6051C84.8762 61.3263 85.2417 61.1294 85.701 61.0099C86.1579 60.8904 86.7086 60.8295 87.3483 60.8295C87.988 60.8295 88.5504 60.8904 89.0027 61.0099C89.4573 61.1294 89.8229 61.3286 90.1064 61.6051C90.3876 61.884 90.5938 62.2589 90.7227 62.7346C90.8516 63.2079 90.9148 63.8055 90.9148 64.5225V64.9068C90.9148 65.6168 90.8516 66.2097 90.7227 66.6901C90.5938 67.1704 90.3899 67.5477 90.1064 67.8242C89.8252 68.1031 89.4573 68.2999 89.0027 68.4194C88.5504 68.5389 87.9974 68.5999 87.3483 68.5999ZM87.3483 67.229C87.7326 67.229 88.056 67.1915 88.3161 67.1189C88.5762 67.0462 88.7848 66.9197 88.9371 66.7416C89.0917 66.5612 89.2019 66.3128 89.2698 65.9918C89.3378 65.6707 89.3729 65.263 89.3729 64.7662V64.6631C89.3729 64.1663 89.3378 63.7586 89.2698 63.4376C89.2019 63.1165 89.0894 62.8682 88.9371 62.6877C88.7824 62.5073 88.5762 62.3831 88.3161 62.3104C88.056 62.2378 87.7326 62.2003 87.3483 62.2003C86.964 62.2003 86.643 62.2378 86.3876 62.3104C86.1298 62.3831 85.926 62.5096 85.7713 62.6877C85.6166 62.8682 85.5065 63.1189 85.4386 63.4376C85.3706 63.7586 85.3354 64.1663 85.3354 64.6631V64.7662C85.3354 65.263 85.3706 65.6707 85.4386 65.9918C85.5065 66.3128 85.619 66.5612 85.7713 66.7416C85.926 66.9221 86.1298 67.0462 86.3876 67.1189C86.643 67.1915 86.964 67.229 87.3483 67.229Z" fill="white"/>
<path d="M51.0996 81.064C51.109 80.8929 51.1113 80.7219 51.1113 80.5508V72.7289C51.1113 72.4641 51.1066 72.2086 51.0996 71.9603H52.6907C52.6813 72.2086 52.6767 72.4664 52.6767 72.7359V80.0001C52.6767 80.197 52.6767 80.3821 52.6837 80.5508C52.6884 80.7219 52.6907 80.8929 52.6907 81.064H51.0996ZM51.8565 77.064V75.665H58.4482V77.064H51.8565ZM57.5999 81.064C57.6093 80.8929 57.6116 80.7219 57.6116 80.5508V72.7289C57.6116 72.4641 57.6069 72.2086 57.5999 71.9603H59.1887C59.1793 72.2086 59.177 72.4664 59.177 72.7359V80.0001C59.177 80.197 59.177 80.3821 59.184 80.5508C59.1887 80.7219 59.191 80.8929 59.191 81.064H57.6023H57.5999Z" fill="white"/>
<path d="M69.3702 71.9603C69.3608 72.1735 69.3585 72.4196 69.3585 72.6984V75.1612C69.3585 75.3627 69.3585 75.5783 69.3655 75.8103C69.3702 76.0399 69.3725 76.2837 69.3725 76.5414V77.3616C69.3725 77.9333 69.328 78.4371 69.239 78.8683C69.1499 79.2995 69.007 79.6674 68.8148 79.972C68.6227 80.2766 68.3649 80.5203 68.0439 80.7101C67.7228 80.8976 67.3339 81.0359 66.8722 81.1202C66.4106 81.2069 65.867 81.2491 65.2436 81.2491C64.4657 81.2491 63.8119 81.1811 63.2823 81.0452C62.7527 80.9093 62.3286 80.6914 62.0122 80.3914C61.6959 80.0938 61.4662 79.6931 61.3256 79.1917C61.1851 78.6926 61.1147 78.0833 61.1147 77.3639V76.5367C61.1147 76.2766 61.1148 76.0329 61.1218 75.8056C61.1265 75.5783 61.1288 75.3651 61.1288 75.1636V72.7078C61.1288 72.4336 61.1241 72.1876 61.1171 71.9649H62.7059C62.6965 72.204 62.6941 72.4641 62.6941 72.7476V77.2749C62.6941 77.7787 62.734 78.1958 62.816 78.5262C62.8957 78.8542 63.0316 79.1167 63.219 79.3088C63.4065 79.501 63.6689 79.6346 64.0017 79.7119C64.3344 79.7892 64.7492 79.8267 65.246 79.8267C65.7428 79.8267 66.1575 79.7892 66.4903 79.7119C66.823 79.6346 67.0831 79.501 67.2729 79.3088C67.4604 79.1167 67.5963 78.8542 67.676 78.5262C67.7556 78.1981 67.7978 77.781 67.7978 77.2749V72.7289C67.7978 72.45 67.7931 72.1969 67.7838 71.9649H69.3749L69.3702 71.9603Z" fill="white"/>
<path d="M76.4492 76.6656V76.204C77.0046 76.2555 77.4732 76.3375 77.8528 76.4477C78.2325 76.5578 78.5371 76.7101 78.7644 76.9023C78.9893 77.0944 79.1557 77.3334 79.2565 77.6193C79.3596 77.9052 79.4111 78.245 79.4111 78.6386V78.6902C79.4111 79.1167 79.3549 79.4799 79.2448 79.7798C79.1346 80.0798 78.9589 80.3235 78.7199 80.5109C78.4808 80.6984 78.1692 80.839 77.7825 80.928C77.3982 81.0171 76.9272 81.0616 76.3719 81.0616H71.2939L71.7181 79.7541H76.1938C76.5875 79.7541 76.9015 79.7189 77.1358 79.6463C77.3701 79.5736 77.5388 79.4401 77.6419 79.2432C77.745 79.0464 77.7966 78.7722 77.7966 78.4231V78.3973C77.7966 78.0645 77.7427 77.8044 77.6372 77.6217C77.5318 77.4389 77.3561 77.3053 77.1124 77.2233C76.8687 77.1436 76.5359 77.1014 76.1188 77.1014H71.9384V75.8197H76.0415C76.4422 75.8197 76.7585 75.7775 76.9835 75.6908C77.2108 75.6064 77.3748 75.4705 77.4779 75.2877C77.581 75.105 77.6326 74.8659 77.6326 74.5754V74.5238C77.6326 74.2075 77.581 73.9591 77.4779 73.781C77.3748 73.6006 77.2108 73.4717 76.9835 73.3897C76.7585 73.3077 76.4422 73.2678 76.0415 73.2678H71.7204L71.2963 71.9602H76.2078C76.9694 71.9602 77.5693 72.0423 78.0098 72.204C78.4504 72.3656 78.7667 72.6164 78.9589 72.9538C79.151 73.2913 79.2471 73.7341 79.2471 74.2825V74.3199C79.2471 74.6714 79.2002 74.9784 79.1065 75.2432C79.0128 75.508 78.8581 75.74 78.6449 75.9368C78.4316 76.1337 78.1457 76.2907 77.7849 76.4102C77.4264 76.5297 76.9811 76.6164 76.4515 76.6656H76.4492ZM71.308 79.358V72.7218C71.308 72.4523 71.3033 72.1993 71.2963 71.9579L72.8733 72.2016V80.7921L71.2963 81.0616C71.3057 80.8999 71.308 80.7312 71.308 80.5555V79.3557V79.358Z" fill="white"/>
<path d="M69.1783 0C58.5632 0 49.9609 8.60458 49.9609 19.2174V22.3949C49.9609 39.2455 63.62 52.9046 80.4707 52.9046H88.398V19.2174C88.398 8.60224 79.7934 0 69.1807 0H69.1783Z" fill="white"/>
<path d="M0.0859375 42.8893C0.0859375 66.5754 19.2892 85.7787 42.9753 85.7787V0C19.2892 0 0.0859375 19.2033 0.0859375 42.8893Z" fill="white"/>
</svg>
