<svg width="91" height="86" viewBox="0 0 91 86" fill="none" xmlns="http://www.w3.org/2000/svg">
<g clip-path="url(#clip0_5063_9821)">
<path d="M54.8812 68.6258C54.0868 68.6258 53.4143 68.5531 52.8683 68.4079C52.32 68.2626 51.8795 68.0142 51.5467 67.665C51.214 67.3135 50.9703 66.8519 50.8226 66.2731C50.6727 65.6967 50.5977 64.9726 50.5977 64.1009V63.6908C50.5977 62.8191 50.6727 62.0927 50.8226 61.5115C50.9726 60.9304 51.214 60.4664 51.5467 60.1196C51.8795 59.7728 52.32 59.5268 52.8683 59.3815C53.4143 59.2362 54.0868 59.1636 54.8812 59.1636C55.6756 59.1636 56.3552 59.2245 56.8941 59.3487C57.4331 59.4729 57.8666 59.6721 58.1946 59.9462C58.5227 60.2204 58.7594 60.5883 58.9 61.0546C59.0406 61.5209 59.1062 62.095 59.0991 62.7793L57.5737 62.8168C57.5737 62.3903 57.5362 62.0294 57.4659 61.7388C57.3932 61.4483 57.2597 61.2186 57.0675 61.0522C56.8754 60.8859 56.6059 60.7664 56.2591 60.6937C55.9123 60.6211 55.4647 60.5859 54.9187 60.5859C54.3727 60.5859 53.9369 60.6375 53.5854 60.7383C53.2339 60.8414 52.9574 61.0124 52.7512 61.2514C52.545 61.4905 52.402 61.8209 52.3223 62.2403C52.2403 62.6598 52.2005 63.1893 52.2005 63.8291V63.9579C52.2005 64.6164 52.2403 65.1577 52.3223 65.5795C52.402 66.0036 52.5473 66.3317 52.7512 66.566C52.9574 66.8027 53.2339 66.9667 53.5854 67.0605C53.9369 67.1542 54.3798 67.2011 54.9187 67.2011C55.4577 67.2011 55.9123 67.1659 56.2591 67.0933C56.6059 67.0206 56.8754 66.9011 57.0675 66.7347C57.2597 66.5684 57.3956 66.3364 57.4706 66.0435C57.5455 65.7506 57.5854 65.392 57.5854 64.9726L59.1109 65.0101C59.1109 65.5584 59.0664 66.0318 58.975 66.4325C58.8836 66.8332 58.7406 67.1753 58.5391 67.4588C58.3376 67.74 58.0751 67.9673 57.7494 68.1384C57.4237 68.3094 57.0253 68.4336 56.5496 68.511C56.074 68.5883 55.5186 68.6258 54.8765 68.6258H54.8812Z" fill="#231F20"/>
<path d="M63.0098 68.6001C62.4872 68.6001 62.0443 68.5556 61.6811 68.4666C61.3179 68.3775 61.0273 68.2369 60.8094 68.0495C60.5915 67.862 60.4345 67.6183 60.3408 67.3183C60.247 67.0184 60.2002 66.6599 60.2002 66.2404C60.2002 65.821 60.2494 65.4461 60.3478 65.1438C60.4462 64.8391 60.6056 64.5908 60.8282 64.3939C61.0508 64.1971 61.3413 64.0541 61.6999 63.9651C62.0584 63.876 62.4989 63.8292 63.0215 63.8292C63.544 63.8292 63.9401 63.8714 64.2916 63.9581C64.6431 64.0424 64.9336 64.169 65.1703 64.3353C65.4046 64.5017 65.5851 64.7103 65.7093 64.9563C65.8334 65.2047 65.9084 65.4906 65.9342 65.8163L65.4726 65.8936C65.4726 65.7413 65.4445 65.6054 65.3882 65.4906C65.332 65.3758 65.2336 65.2773 65.093 65.1953C64.9524 65.1133 64.7649 65.0524 64.5282 65.0079C64.2916 64.9657 63.9916 64.9446 63.6237 64.9446C63.2558 64.9446 62.9231 64.968 62.6747 65.0149C62.4263 65.0618 62.2388 65.1344 62.1099 65.2328C61.9811 65.3312 61.892 65.4601 61.8405 65.6171C61.7889 65.7741 61.7631 65.9686 61.7631 66.2006C61.7631 66.5005 61.8194 66.7325 61.9295 66.8989C62.0397 67.0653 62.2341 67.1848 62.506 67.2574C62.7778 67.3301 63.1433 67.3652 63.5956 67.3652C63.9635 67.3652 64.2681 67.3441 64.5118 67.302C64.7555 67.2598 64.9477 67.1918 65.0883 67.0957C65.2289 66.9997 65.3273 66.8825 65.3835 66.7372C65.4398 66.5919 65.4679 66.4162 65.4679 66.2123L65.9295 66.3271C65.9037 66.6599 65.8264 66.9692 65.6975 67.2504C65.5687 67.5316 65.3906 67.773 65.1586 67.9745C64.9266 68.176 64.6337 68.3283 64.2798 68.4361C63.926 68.5439 63.4995 68.5954 63.0051 68.5954L63.0098 68.6001ZM66.9582 66.0108V67.1403C66.9582 67.5082 66.9629 67.944 66.9699 68.4478H65.5851L65.5593 67.1778L65.5851 66.7021L65.4702 66.2147V65.8936L65.6507 65.4203L65.4327 64.9587V63.7284C65.4327 63.4215 65.4046 63.166 65.3484 62.9645C65.2921 62.763 65.1961 62.6013 65.0602 62.4771C64.9242 62.3529 64.7368 62.2662 64.5025 62.2147C64.2681 62.1631 63.9705 62.1373 63.612 62.1373C63.2535 62.1373 62.9793 62.1561 62.7661 62.1959C62.5528 62.2334 62.3888 62.2943 62.2716 62.3763C62.1568 62.4584 62.0795 62.5708 62.042 62.7161C62.0045 62.8614 61.9834 63.0372 61.9834 63.2434L60.5212 63.2059C60.5118 62.7958 60.561 62.4396 60.6688 62.142C60.7766 61.8444 60.95 61.5984 61.1961 61.4039C61.4398 61.2117 61.7608 61.0688 62.1638 60.9751C62.5645 60.8813 63.0566 60.8345 63.6378 60.8345C64.2962 60.8345 64.8375 60.886 65.2664 60.9891C65.6928 61.0922 66.0303 61.2469 66.2787 61.4578C66.5271 61.6663 66.7028 61.9311 66.8106 62.2521C66.9184 62.5732 66.9699 62.9505 66.9699 63.3863V64.0659C66.9699 64.2627 66.9699 64.4548 66.9629 64.6423C66.9559 64.8298 66.9559 65.0313 66.9559 65.2445V66.0131L66.9582 66.0108Z" fill="#231F20"/>
<path d="M68.7676 66.7536V61.753C68.7676 61.5046 68.7629 61.2492 68.7559 60.9844H70.1923L70.2181 62.381L70.1408 62.9082L70.2954 64.6915V67.4027C70.2954 67.5854 70.2954 67.7588 70.3025 67.9229C70.3071 68.0869 70.3095 68.2603 70.3095 68.4501H68.7582C68.7676 68.2626 68.7699 68.0799 68.7699 67.9041V66.7559L68.7676 66.7536ZM69.794 64.3423C69.8197 63.7448 69.8947 63.2246 70.0189 62.784C70.1431 62.3435 70.3142 61.9779 70.5321 61.6874C70.75 61.3968 71.0195 61.1812 71.3405 61.0383C71.6616 60.8977 72.0342 60.8274 72.463 60.8274C72.8567 60.8274 73.1824 60.8649 73.4448 60.9422C73.7073 61.0195 73.9158 61.1461 74.0728 61.3195C74.2322 61.4952 74.3446 61.7272 74.4126 62.0178C74.4805 62.3083 74.5157 62.6715 74.5157 63.1074V63.6393C74.5157 63.8315 74.511 64.0096 74.5016 64.1712L73.0535 64.197V63.4542C73.0535 63.2152 73.0371 63.016 73.0019 62.859C72.9668 62.6997 72.9058 62.5755 72.8168 62.4817C72.7254 62.388 72.6012 62.3224 72.4395 62.2825C72.2755 62.2451 72.067 62.224 71.8115 62.224C71.5561 62.224 71.3335 62.2544 71.1437 62.32C70.9562 62.3833 70.7992 62.5028 70.675 62.6715C70.5508 62.8426 70.4571 63.091 70.3938 63.4144C70.3306 63.7401 70.2978 64.1619 70.2978 64.6844L69.7987 64.3376L69.794 64.3423Z" fill="#231F20"/>
<path d="M78.4616 67.6136C77.9391 67.6136 77.4798 67.5667 77.0838 67.473C76.6854 67.3793 76.3574 67.2106 76.0973 66.9669C75.8371 66.7231 75.6403 66.3857 75.5068 65.9546C75.3732 65.5234 75.3076 64.9657 75.3076 64.2814V64.1666C75.3076 63.4918 75.3732 62.9364 75.5068 62.5005C75.6403 62.0647 75.8348 61.7273 76.0973 61.4882C76.3597 61.2492 76.6854 61.0805 77.0791 60.9821C77.4728 60.8837 77.9344 60.8345 78.464 60.8345C78.9936 60.8345 79.4013 60.9048 79.7645 61.0454C80.1277 61.186 80.4253 61.3922 80.655 61.6616C80.8846 61.9311 81.058 62.2615 81.1752 62.6552C81.29 63.0489 81.3556 63.4918 81.3744 63.9885L80.8869 64.169C80.8869 63.7683 80.8495 63.4379 80.7721 63.1824C80.6948 62.927 80.5776 62.7255 80.4206 62.5802C80.2613 62.4349 80.0574 62.3318 79.8043 62.2709C79.5513 62.2123 79.2466 62.1818 78.8881 62.1818C78.5109 62.1818 78.1922 62.217 77.9274 62.285C77.6626 62.3529 77.454 62.463 77.2994 62.613C77.147 62.763 77.0322 62.9645 76.9596 63.2223C76.887 63.4777 76.8518 63.794 76.8518 64.1713V64.2861C76.8518 64.6634 76.887 64.9797 76.9596 65.2352C77.0322 65.4906 77.1471 65.6944 77.3064 65.8444C77.4657 65.9944 77.6743 66.1022 77.9344 66.1725C78.1945 66.2428 78.5179 66.2756 78.9022 66.2756C79.2865 66.2756 79.5771 66.2404 79.8254 66.1725C80.0738 66.1045 80.2754 65.9897 80.4277 65.8327C80.5823 65.6734 80.6971 65.4601 80.7745 65.1906C80.8518 64.9212 80.8893 64.5814 80.8893 64.1713L81.3767 64.3377C81.358 64.8602 81.2924 65.3242 81.1775 65.7296C81.0627 66.135 80.8893 66.4794 80.6573 66.763C80.4253 67.0442 80.1301 67.2598 79.7716 67.4051C79.413 67.5503 78.9772 67.623 78.464 67.623L78.4616 67.6136ZM78.7311 70.3951C78.2086 70.3951 77.7633 70.374 77.3908 70.3318C77.0182 70.2897 76.7135 70.217 76.4745 70.1139C76.2355 70.0108 76.048 69.8702 75.9098 69.6898C75.7739 69.5093 75.6731 69.2891 75.6075 69.0219C75.5442 68.7571 75.5114 68.4408 75.5114 68.0729L76.9737 68.0213C76.9737 68.2182 76.9947 68.3845 77.0369 68.5205C77.0791 68.6564 77.1635 68.7689 77.2876 68.8602C77.4118 68.9493 77.5899 69.0126 77.8266 69.0524C78.0609 69.0899 78.3632 69.111 78.7311 69.111C79.167 69.111 79.5255 69.0852 79.802 69.0336C80.0785 68.9821 80.2988 68.8884 80.4628 68.7525C80.6245 68.6165 80.7393 68.4314 80.8026 68.2018C80.8659 67.9721 80.9034 67.6816 80.9127 67.3301L80.9244 65.7273L80.9877 65.036L80.8846 64.1643L81.0252 62.8192L80.9619 62.3834L80.9877 60.9868H82.4101C82.4007 61.2258 82.3984 61.4812 82.3984 61.7507V65.425C82.3984 65.6734 82.3984 65.91 82.4054 66.1373C82.4124 66.3646 82.4124 66.5919 82.4124 66.8239V67.541C82.4124 68.0705 82.3468 68.5205 82.2133 68.8884C82.0797 69.2563 81.8711 69.5515 81.5853 69.7741C81.2994 69.9967 80.9198 70.1561 80.4511 70.2545C79.9801 70.3529 79.4083 70.4021 78.7335 70.4021L78.7311 70.3951Z" fill="#231F20"/>
<path d="M87.3473 68.6C86.7053 68.6 86.1569 68.5414 85.7 68.4196C85.243 68.3001 84.8751 68.1009 84.5963 67.8244C84.3174 67.5455 84.1159 67.1682 83.987 66.6902C83.8582 66.2122 83.7949 65.617 83.7949 64.907V64.5227C83.7949 63.8056 83.8582 63.2081 83.987 62.7347C84.1159 62.259 84.3174 61.8841 84.5963 61.6053C84.8751 61.3264 85.2407 61.1296 85.7 61.0101C86.1569 60.8906 86.7076 60.8296 87.3473 60.8296C87.987 60.8296 88.5494 60.8906 89.0017 61.0101C89.4563 61.1296 89.8218 61.3288 90.1054 61.6053C90.3866 61.8841 90.5928 62.259 90.7217 62.7347C90.8506 63.2081 90.9138 63.8056 90.9138 64.5227V64.907C90.9138 65.617 90.8506 66.2098 90.7217 66.6902C90.5928 67.1706 90.3889 67.5479 90.1054 67.8244C89.8242 68.1032 89.4563 68.3001 89.0017 68.4196C88.5494 68.5391 87.9964 68.6 87.3473 68.6ZM87.3473 67.2292C87.7316 67.2292 88.055 67.1917 88.3151 67.119C88.5752 67.0464 88.7838 66.9199 88.9361 66.7418C89.0907 66.5613 89.2009 66.3129 89.2688 65.9919C89.3368 65.6709 89.3719 65.2632 89.3719 64.7664V64.6633C89.3719 64.1665 89.3368 63.7587 89.2688 63.4377C89.2009 63.1167 89.0884 62.8683 88.9361 62.6879C88.7814 62.5074 88.5752 62.3832 88.3151 62.3106C88.055 62.238 87.7316 62.2005 87.3473 62.2005C86.963 62.2005 86.642 62.238 86.3866 62.3106C86.1288 62.3832 85.9249 62.5098 85.7703 62.6879C85.6156 62.8683 85.5055 63.119 85.4375 63.4377C85.3696 63.7587 85.3344 64.1665 85.3344 64.6633V64.7664C85.3344 65.2632 85.3696 65.6709 85.4375 65.9919C85.5055 66.3129 85.618 66.5613 85.7703 66.7418C85.9249 66.9222 86.1288 67.0464 86.3866 67.119C86.642 67.1917 86.963 67.2292 87.3473 67.2292Z" fill="#231F20"/>
<path d="M51.0996 81.0639C51.109 80.8928 51.1114 80.7218 51.1114 80.5507V72.7288C51.1114 72.464 51.1067 72.2086 51.0996 71.9602H52.6908C52.6814 72.2086 52.6767 72.4663 52.6767 72.7358V80C52.6767 80.1969 52.6767 80.382 52.6837 80.5507C52.6884 80.7218 52.6908 80.8928 52.6908 81.0639H51.0996ZM51.8565 77.0639V75.6649H58.4482V77.0639H51.8565ZM57.5999 81.0639C57.6093 80.8928 57.6117 80.7218 57.6117 80.5507V72.7288C57.6117 72.464 57.607 72.2086 57.5999 71.9602H59.1887C59.1793 72.2086 59.177 72.4663 59.177 72.7358V80C59.177 80.1969 59.177 80.382 59.184 80.5507C59.1887 80.7218 59.1911 80.8928 59.1911 81.0639H57.6023H57.5999Z" fill="#231F20"/>
<path d="M69.3697 71.9602C69.3604 72.1734 69.358 72.4195 69.358 72.6983V75.1611C69.358 75.3626 69.358 75.5782 69.3651 75.8102C69.3697 76.0399 69.3721 76.2836 69.3721 76.5413V77.3615C69.3721 77.9332 69.3276 78.437 69.2385 78.8682C69.1495 79.2994 69.0065 79.6673 68.8144 79.9719C68.6222 80.2765 68.3645 80.5202 68.0434 80.71C67.7224 80.8975 67.3334 81.0358 66.8718 81.1201C66.4102 81.2068 65.8665 81.249 65.2432 81.249C64.4652 81.249 63.8114 81.181 63.2819 81.0451C62.7523 80.9092 62.3281 80.6913 62.0118 80.3914C61.6954 80.0938 61.4658 79.6931 61.3252 79.1916C61.1846 78.6925 61.1143 78.0832 61.1143 77.3638V76.5366C61.1143 76.2765 61.1143 76.0328 61.1213 75.8055C61.126 75.5782 61.1284 75.365 61.1284 75.1635V72.7077C61.1284 72.4335 61.1237 72.1875 61.1166 71.9649H62.7054C62.696 72.2039 62.6937 72.464 62.6937 72.7475V77.2748C62.6937 77.7786 62.7335 78.1957 62.8155 78.5261C62.8952 78.8541 63.0311 79.1166 63.2186 79.3088C63.4061 79.5009 63.6685 79.6345 64.0012 79.7118C64.334 79.7891 64.7488 79.8266 65.2455 79.8266C65.7423 79.8266 66.1571 79.7891 66.4898 79.7118C66.8226 79.6345 67.0827 79.5009 67.2725 79.3088C67.46 79.1166 67.5959 78.8541 67.6755 78.5261C67.7552 78.198 67.7974 77.7809 67.7974 77.2748V72.7288C67.7974 72.4499 67.7927 72.1968 67.7833 71.9649H69.3744L69.3697 71.9602Z" fill="#231F20"/>
<path d="M76.4492 76.6657V76.2041C77.0045 76.2557 77.4732 76.3377 77.8528 76.4478C78.2324 76.5579 78.5371 76.7102 78.7644 76.9024C78.9893 77.0945 79.1557 77.3336 79.2565 77.6194C79.3596 77.9053 79.4111 78.2451 79.4111 78.6388V78.6903C79.4111 79.1168 79.3549 79.48 79.2447 79.78C79.1346 80.0799 78.9588 80.3236 78.7198 80.5111C78.4808 80.6985 78.1692 80.8391 77.7825 80.9282C77.3982 81.0172 76.9272 81.0617 76.3719 81.0617H71.2939L71.7181 79.7542H76.1938C76.5874 79.7542 76.9014 79.719 77.1358 79.6464C77.3701 79.5738 77.5388 79.4402 77.6419 79.2433C77.745 79.0465 77.7966 78.7723 77.7966 78.4232V78.3974C77.7966 78.0647 77.7427 77.8046 77.6372 77.6218C77.5318 77.439 77.356 77.3054 77.1123 77.2234C76.8686 77.1438 76.5359 77.1016 76.1188 77.1016H71.9383V75.8198H76.0414C76.4421 75.8198 76.7585 75.7776 76.9835 75.6909C77.2108 75.6066 77.3748 75.4706 77.4779 75.2879C77.581 75.1051 77.6326 74.8661 77.6326 74.5755V74.5239C77.6326 74.2076 77.581 73.9592 77.4779 73.7811C77.3748 73.6007 77.2108 73.4718 76.9835 73.3898C76.7585 73.3078 76.4421 73.2679 76.0414 73.2679H71.7204L71.2963 71.9604H76.2078C76.9694 71.9604 77.5693 72.0424 78.0098 72.2041C78.4504 72.3658 78.7667 72.6165 78.9589 72.9539C79.151 73.2914 79.2471 73.7343 79.2471 74.2826V74.3201C79.2471 74.6716 79.2002 74.9785 79.1065 75.2433C79.0127 75.5081 78.8581 75.7401 78.6449 75.937C78.4316 76.1338 78.1457 76.2908 77.7849 76.4103C77.4263 76.5298 76.9811 76.6165 76.4515 76.6657H76.4492ZM71.308 79.3582V72.7219C71.308 72.4525 71.3033 72.1994 71.2963 71.958L72.8733 72.2017V80.7923L71.2963 81.0617C71.3056 80.9001 71.308 80.7313 71.308 80.5556V79.3558V79.3582Z" fill="#231F20"/>
<path d="M69.1774 0C58.5623 0 49.96 8.60458 49.96 19.2174V22.3949C49.96 39.2455 63.6191 52.9046 80.4698 52.9046H88.3971V19.2174C88.3971 8.60224 79.7926 0 69.1798 0H69.1774Z" fill="#D8D893"/>
<path d="M0.0859375 42.8893C0.0859375 66.5754 19.2892 85.7787 42.9752 85.7787V0C19.2892 0 0.0859375 19.2033 0.0859375 42.8893Z" fill="#D8D893"/>
</g>
<defs>
<clipPath id="clip0_5063_9821">
<rect width="91" height="86" fill="white"/>
</clipPath>
</defs>
</svg>
